HIERARCHY
ROOT Hips
{
	OFFSET 0.00000 0.00000 0.00000
	CHANNELS 6 Xposition Yposition Zposition Zrotation Yrotation Xrotation 
	JOINT LHipJoint
	{
		OFFSET 0 0 0
		CHANNELS 3 Zrotation Yrotation Xrotation
		JOINT LeftUpLeg
		{
			OFFSET 1.24777 -1.64261 0.71711
			CHANNELS 3 Zrotation Yrotation Xrotation
			JOINT LeftLeg
			{
				OFFSET 2.49329 -6.85026 0.00000
				CHANNELS 3 Zrotation Yrotation Xrotation
				JOINT LeftFoot
				{
					OFFSET 2.36770 -6.50520 0.00000
					CHANNELS 3 Zrotation Yrotation Xrotation
					JOINT LeftToeBase
					{
						OFFSET 0.14820 -0.40718 2.21395
						CHANNELS 3 Zrotation Yrotation Xrotation
						End Site
						{
							OFFSET 0.00000 -0.00000 1.13491
						}
					}
				}
			}
		}
	}
	JOINT RHipJoint
	{
		OFFSET 0 0 0
		CHANNELS 3 Zrotation Yrotation Xrotation
		JOINT RightUpLeg
		{
			OFFSET -1.18320 -1.64261 0.71711
			CHANNELS 3 Zrotation Yrotation Xrotation
			JOINT RightLeg
			{
				OFFSET -2.46559 -6.77417 0.00000
				CHANNELS 3 Zrotation Yrotation Xrotation
				JOINT RightFoot
				{
					OFFSET -2.38450 -6.55136 0.00000
					CHANNELS 3 Zrotation Yrotation Xrotation
					JOINT RightToeBase
					{
						OFFSET -0.17454 -0.47954 2.02925
						CHANNELS 3 Zrotation Yrotation Xrotation
						End Site
						{
							OFFSET -0.00000 -0.00000 1.05076
						}
					}
				}
			}
		}
	}
	JOINT LowerBack
	{
		OFFSET 0 0 0
		CHANNELS 3 Zrotation Yrotation Xrotation
		JOINT Spine
		{
			OFFSET -0.02305 1.98660 0.00319
			CHANNELS 3 Zrotation Yrotation Xrotation
			JOINT Spine1
			{
				OFFSET -0.00718 1.99033 -0.00533
				CHANNELS 3 Zrotation Yrotation Xrotation
				JOINT Neck
				{
					OFFSET 0 0 0
					CHANNELS 3 Zrotation Yrotation Xrotation
					JOINT Neck1
					{
						OFFSET 0.00095 1.61015 0.10698
						CHANNELS 3 Zrotation Yrotation Xrotation
						JOINT Head
						{
							OFFSET -0.01060 1.59924 0.01317
							CHANNELS 3 Zrotation Yrotation Xrotation
							End Site
							{
								OFFSET -0.00458 1.63304 -0.00592
							}
						}
					}
				}
				JOINT LeftShoulder
				{
					OFFSET 0 0 0
					CHANNELS 3 Zrotation Yrotation Xrotation
					JOINT LeftArm
					{
						OFFSET 3.05381 1.47088 -0.01697
						CHANNELS 3 Zrotation Yrotation Xrotation
						JOINT LeftForeArm
						{
							OFFSET 4.25106 -0.00000 0.00000
							CHANNELS 3 Zrotation Yrotation Xrotation
							JOINT LeftHand
							{
								OFFSET 3.27592 -0.00000 0.00000
								CHANNELS 3 Zrotation Yrotation Xrotation
								JOINT LeftFingerBase
								{
									OFFSET 0 0 0
									CHANNELS 3 Zrotation Yrotation Xrotation
									JOINT LeftHandIndex1
									{
										OFFSET 0.65781 -0.00000 0.00000
										CHANNELS 3 Zrotation Yrotation Xrotation
										End Site
										{
											OFFSET 0.53034 -0.00000 0.00000
										}
									}
								}
								JOINT LThumb
								{
									OFFSET 0 0 0
									CHANNELS 3 Zrotation Yrotation Xrotation
									End Site
									{
										OFFSET 0.53844 -0.00000 0.53844
									}
								}
							}
						}
					}
				}
				JOINT RightShoulder
				{
					OFFSET 0 0 0
					CHANNELS 3 Zrotation Yrotation Xrotation
					JOINT RightArm
					{
						OFFSET -2.83695 1.31619 -0.22674
						CHANNELS 3 Zrotation Yrotation Xrotation
						JOINT RightForeArm
						{
							OFFSET -4.46073 -0.00000 0.00000
							CHANNELS 3 Zrotation Yrotation Xrotation
							JOINT RightHand
							{
								OFFSET -3.44416 -0.00000 0.00000
								CHANNELS 3 Zrotation Yrotation Xrotation
								JOINT RightFingerBase
								{
									OFFSET 0 0 0
									CHANNELS 3 Zrotation Yrotation Xrotation
									JOINT RightHandIndex1
									{
										OFFSET -0.61651 -0.00000 0.00000
										CHANNELS 3 Zrotation Yrotation Xrotation
										End Site
										{
											OFFSET -0.49705 -0.00000 0.00000
										}
									}
								}
								JOINT RThumb
								{
									OFFSET 0 0 0
									CHANNELS 3 Zrotation Yrotation Xrotation
									End Site
									{
										OFFSET -0.50464 -0.00000 0.50464
									}
								}
							}
						}
					}
				}
			}
		}
	}
}
MOTION
Frames: 7
Frame Time: 0.0208333
0.00 0.00 0.00 0 0 0 0 0 0 -21 0 0 0 0 0 0 0 0 0 0 0 0 0 0 21 0 0 0 0 0 0 0 0 0 0 0 0 0 0 0 0 0 0 0 0 0 0 -16 0 0 21 0 0 11 0 0 0 -8 0 0 0 0 0 0 0 0 0 0 0 0 0 0 0 0 0 0 0 0 8 0 0 0 0 0 0 0 0 0 0 0 0 0 0 0 0 0
0.00 0.00 0.00 -0.7778 1.0256 5.8331 0.0000 0.0000 0.0000 -19.3275 -1.8495 -26.0497 4.9288 13.3032 40.5143 1.6628 -13.9340 -23.6708 2.6695 10.1398 29.4306 0.0000 0.0000 0.0000 22.9564 9.7608 -14.5845 -3.1264 -10.8970 31.9332 -2.4439 -8.7996 -33.6781 -0.7606 -5.5698 15.5411 -2.4511 3.5344 -0.2485 4.0022 4.7532 -0.8857 5.4454 2.4343 -1.3152 4.9464 9.5843 -4.7094 -11.3049 12.9991 1.7692 -3.6232 6.2974 2.3699 0.0000 -0.0000 0.0000 -81.4908 11.4406 75.9722 48.4627 -52.3564 -24.9516 -0.0000 0.0000 -10.9395 -29.0512 20.3996 -10.9580 -7.1250 0.0000 -0.0000 -50.0641 44.1706 1.4157 0.0000 -0.0000 0.0000 78.3274 -29.8202 41.2010 -65.7932 57.6658 -39.2006 0.0000 0.0000 27.9876 11.8212 -21.5768 -4.4013 7.1250 -0.0000 -0.0000 38.1438 -47.6347 -2.8843
0.00 0.00 0.00 -1.1885 6.0597 6.1363 0.0000 0.0000 0.0000 -16.3120 -3.2232 -34.2468 7.3461 15.6165 50.1714 -0.8242 -20.7021 -6.6914 3.1315 10.9049 31.9598 0.0000 0.0000 0.0000 23.3879 10.6439 -14.8358 -3.0148 -10.7190 31.3380 -1.7235 -14.0652 -33.2627 -0.6445 -5.1359 14.2965 -0.7721 4.3487 0.6216 4.5536 5.8609 -0.6330 4.9896 2.9771 -1.5570 5.7029 12.7020 -1.1984 -11.2981 17.3996 2.8670 -3.6125 8.5826 2.5451 -0.0000 -0.0000 0.0000 -81.4082 5.7046 84.9172 48.3357 -52.3018 -24.8511 -0.0000 0.0000 -8.5524 -22.8167 18.3063 -7.5276 -7.1250 0.0000 -0.0000 -44.5222 43.4718 2.1531 -0.0000 -0.0000 0.0000 77.9860 -30.3293 41.7145 -70.4225 58.5011 -43.1307 0.0000 0.0000 31.8586 18.1249 -21.6990 -6.9006 7.1250 -0.0000 -0.0000 43.2566 -46.8171 -2.3842
0.00 0.00 0.00 -1.0159 1.5810 8.1985 0.0000 0.0000 0.0000 -14.6313 -7.8975 -17.2408 2.7007 10.1941 29.6075 1.8492 -2.5268 -25.0480 1.7339 8.2882 23.5931 0.0000 0.0000 0.0000 16.3804 14.4452 -15.9576 -2.5801 -9.9821 28.9188 -1.2041 -13.5608 -29.5845 -0.4641 -4.3698 12.1195 -3.0634 4.0578 -3.8213 1.6930 5.5112 -1.8134 3.6269 2.7946 -0.1868 6.4176 9.2221 -7.8986 -8.2548 13.6461 20.2783 -2.3824 6.2459 8.6282 0.0000 -0.0000 0.0000 -82.1487 11.4698 81.2696 56.2523 -55.2257 -31.2422 -0.0000 0.0000 -18.0602 -40.9540 32.3052 -24.8828 -7.1250 0.0000 -0.0000 -68.2838 50.3605 -15.2737 0.0000 -0.0000 0.0000 81.3949 -12.4783 53.0995 -88.6368 59.9930 -58.8195 0.0000 0.0000 19.1622 -21.9015 -20.5038 8.0156 7.1250 -0.0000 -0.0000 6.7578 -51.8081 -1.1372
0.00 0.00 0.00 -1.5266 -2.8485 9.2033 0.0000 0.0000 0.0000 -14.9578 -7.8557 -18.2324 2.7487 10.2767 29.8776 1.8948 1.6505 -26.6590 1.5222 7.7904 22.0793 0.0000 0.0000 0.0000 15.6143 13.2818 -19.2316 -2.5590 -9.9445 28.7971 -1.7471 -7.1709 -28.4235 -0.9916 -6.3378 17.7676 -4.0912 3.9565 -4.0762 1.5677 5.4227 -1.5141 4.1009 2.7420 0.1861 5.2839 5.7013 -9.4196 -6.5303 8.3692 19.7991 -2.1975 3.7808 8.1782 -0.0000 -0.0000 0.0000 -81.1792 14.0597 77.8606 58.5608 -55.9141 -33.1463 -0.0000 0.0000 -18.1776 -33.1960 27.3818 -16.7474 -7.1250 0.0000 -0.0000 -58.4487 48.5713 -7.6240 -0.0000 -0.0000 0.0000 77.0372 -3.9246 65.4930 -110.1366 58.4110 -77.3457 0.0000 0.0000 4.1608 -13.9144 -17.0206 4.1477 7.1250 -0.0000 -0.0000 13.2998 -47.0370 -0.6801
0.00 0.00 0.00 -1.9628 -10.6839 9.9953 0.0000 0.0000 0.0000 -15.6860 -5.4887 -19.8776 2.8557 10.4577 30.4721 2.0126 5.1950 -29.0615 1.6022 7.9830 22.6625 0.0000 0.0000 0.0000 14.8773 12.4101 -23.9857 -2.7423 -10.2657 29.8414 -2.1757 3.2366 -27.0934 -3.4465 -11.3849 33.5894 -5.9207 4.3803 -3.1429 0.7396 6.0099 -1.2370 4.2015 3.0442 -0.2086 3.5883 0.5403 -10.7914 -1.6948 0.4156 20.1000 -1.1201 0.3060 8.0024 0.0000 -0.0000 0.0000 -80.4188 15.2084 73.2936 54.2665 -54.5777 -29.6173 -0.0000 0.0000 -21.3774 -17.4720 21.9691 -6.7159 -7.1250 0.0000 -0.0000 -42.9309 47.1254 -2.7515 0.0000 -0.0000 0.0000 75.0343 13.4636 77.6457 -129.9510 53.0152 -93.7867 0.0000 -0.0000 -15.3999 -12.1487 -12.6684 2.7030 7.1250 -0.0000 -0.0000 13.6143 -42.5183 0.8508
0.00 0.00 0.00 -2.6812 -17.1864 10.2491 0.0000 0.0000 0.0000 -15.9444 -3.0099 -21.7812 3.1837 10.9867 32.2350 1.5573 9.6351 -28.7846 0.6052 4.9797 13.8507 0.0000 0.0000 0.0000 15.7074 4.2118 -30.4439 -3.5701 -11.5653 34.2109 -1.8420 -1.2939 -26.1558 -3.5526 -11.5400 34.1234 -6.4935 5.4084 -2.1392 -0.2942 7.3180 -1.2805 3.3451 3.7143 -0.9010 2.7654 -6.0055 -9.9174 2.9858 -9.3759 18.9798 -0.3548 -4.0151 7.4980 0.0000 0.0000 0.0000 -79.0327 10.9871 72.9180 47.3468 -51.8677 -24.0709 -0.0000 0.0000 -19.8387 -1.7131 19.8682 -0.5824 -7.1250 0.0000 -0.0000 -28.5734 47.6051 -1.9923 0.0000 0.0000 0.0000 83.6092 23.4671 84.2638 -147.3014 43.0971 -106.7843 0.0000 -0.0000 -41.8452 -4.2492 -12.4385 0.9169 7.1250 -0.0000 -0.0000 20.3582 -41.5318 1.8264
